
<svg width="60" height="60" viewBox="0 0 60 60" fill="none" xmlns="http://www.w3.org/2000/svg">
  <rect width="60" height="60" rx="30" fill="#FFDEE2" />
  <path d="M30 48C29.2 48 28.5 47.7 27.9 47.1C26.3 45.6 24.8 44.3 23.4 43.1L23.4 43.1C19.4 39.8 16 37 13.6 34.1C10.9 30.9 9.5 27.9 9.5 24.7C9.5 21.6 10.4 18.9 12.3 16.8C14.2 14.6 16.7 13.5 19.6 13.5C21.8 13.5 23.7 14.2 25.4 15.6C26.3 16.3 27.1 17.2 27.9 18.2C28.7 17.2 29.5 16.3 30.4 15.6C32.1 14.2 34 13.5 36.2 13.5C39.1 13.5 41.6 14.6 43.5 16.8C45.4 18.9 46.3 21.6 46.3 24.7C46.3 27.9 44.9 30.9 42.2 34.1C39.8 37 36.4 39.8 32.4 43.1C31 44.3 29.5 45.6 27.9 47.1C27.3 47.7 26.6 48 29.8 48H30Z" fill="#9b87f5"/>
</svg>
